<?xml version="1.0" standalone="no"?>
<!DOCTYPE svg PUBLIC "-//W3C//DTD SVG 20010904//EN"
 "http://www.w3.org/TR/2001/REC-SVG-20010904/DTD/svg10.dtd">
<svg version="1.0" xmlns="http://www.w3.org/2000/svg"
 width="1184.000000pt" height="1184.000000pt" viewBox="0 0 1184.000000 1184.000000"
 preserveAspectRatio="xMidYMid meet">
<metadata>
Created by potrace 1.11, written by Peter Selinger 2001-2013
</metadata>
<g transform="translate(0.000000,1184.000000) scale(0.100000,-0.100000)"
fill="#000000" stroke="none">
<path d="M5500 11729 c-983 -78 -1921 -400 -2720 -932 -377 -251 -717 -536
-993 -831 -441 -472 -728 -884 -997 -1431 -391 -794 -582 -1620 -584 -2515 0
-315 11 -484 50 -780 201 -1513 1009 -2891 2239 -3815 888 -667 1921 -1052
3045 -1135 177 -13 613 -13 798 1 988 71 1942 393 2742 924 355 235 604 438
895 729 390 390 662 741 924 1191 623 1068 878 2315 730 3565 -132 1116 -586
2153 -1326 3029 -137 163 -514 538 -663 662 -594 490 -1189 825 -1875 1054
-465 156 -916 247 -1411 284 -161 13 -698 12 -854 0z m768 -24 c463 -20 989
-121 1482 -285 905 -301 1723 -830 2378 -1540 776 -840 1274 -1871 1446 -2990
53 -345 60 -449 61 -870 0 -414 -5 -499 -51 -820 -51 -359 -120 -650 -239
-1005 -146 -437 -308 -783 -558 -1190 -327 -534 -786 -1051 -1285 -1449 -856
-682 -1851 -1094 -2932 -1215 -291 -33 -769 -42 -1048 -21 -865 67 -1691 320
-2433 745 -244 140 -588 381 -814 570 -390 325 -793 772 -1072 1190 -543 813
-852 1686 -949 2680 -21 213 -24 746 -6 955 69 771 266 1472 597 2125 534
1052 1362 1897 2412 2463 534 288 1220 516 1808 601 433 62 724 76 1203 56z"/>
<path d="M6415 11580 c-42 -16 -48 -36 -49 -153 -1 -103 2 -121 38 -237 46
-149 147 -352 217 -436 28 -32 62 -74 77 -93 53 -68 213 -217 257 -241 17 -9
33 -29 40 -50 8 -24 21 -38 41 -46 16 -6 56 -23 88 -38 54 -25 87 -28 86 -9
-1 4 -24 19 -52 33 -43 20 -54 32 -65 63 -19 57 -82 140 -103 134 -9 -2 -24 1
-33 8 -13 9 -14 19 -7 51 16 65 12 92 -15 116 -14 12 -25 28 -25 35 0 27 -42
139 -60 158 -10 11 -25 36 -32 55 -20 48 -41 64 -66 51 -16 -8 -26 -6 -46 10
-15 12 -45 23 -66 26 -43 6 -45 9 -31 47 6 13 6 26 1 28 -13 5 -92 267 -84
280 4 6 8 36 9 66 1 46 -2 56 -22 69 -13 8 -23 21 -23 27 0 12 -41 57 -51 55
-2 0 -13 -4 -24 -9z m225 -605 c0 -8 -4 -15 -9 -15 -13 0 -22 16 -14 24 11 11
23 6 23 -9z m198 -225 c34 -42 48 -86 33 -109 -7 -11 -13 -9 -31 9 -23 23 -63
124 -53 134 11 11 18 6 51 -34z"/>
<path d="M5865 11328 c10 -46 27 -169 26 -193 0 -26 -6 -56 -15 -76 -4 -9 11
-75 34 -155 53 -181 55 -184 83 -184 29 0 62 -34 53 -55 -5 -15 -9 -15 -36 2
-16 9 -30 20 -30 23 0 4 -13 5 -29 2 -23 -3 -33 2 -54 30 -13 18 -28 44 -32
58 -11 37 -95 189 -109 198 -7 4 -22 23 -34 42 -36 60 -147 160 -176 160 -24
0 -26 -3 -26 -44 0 -25 5 -48 11 -52 6 -3 20 -26 31 -50 21 -49 33 -55 44 -22
6 19 9 15 25 -26 22 -59 44 -84 87 -103 60 -25 122 -153 74 -153 -10 0 -26 -6
-36 -13 -20 -15 -16 -19 98 -107 21 -16 33 -30 25 -30 -9 -1 -7 -7 7 -19 49
-40 39 -50 -120 -129 -164 -82 -213 -122 -282 -228 -43 -67 -103 -140 -187
-232 -48 -51 -88 -114 -91 -142 -1 -3 -12 -16 -25 -29 -32 -32 -71 -121 -81
-184 -4 -29 -15 -81 -25 -117 -14 -57 -15 -70 -3 -105 9 -24 19 -39 28 -37
133 30 161 46 199 114 23 42 25 50 14 89 -11 43 -11 44 23 77 19 18 34 38 34
44 0 5 11 24 25 42 14 17 45 55 69 83 23 29 48 65 55 80 7 16 17 35 22 43 5 8
15 26 21 40 7 14 20 33 30 43 12 12 18 33 18 62 0 78 30 112 104 118 23 2 32
-4 46 -28 22 -40 53 -44 68 -10 7 14 12 31 12 37 0 6 11 34 25 62 13 28 26 75
28 104 5 60 30 94 107 140 44 27 47 27 200 25 139 -2 195 5 179 22 -6 5 -139
28 -242 40 -45 6 -48 8 -42 28 17 55 17 67 -4 93 -12 15 -21 32 -21 39 0 6
-11 22 -24 34 -34 32 -71 199 -91 401 -6 65 -5 65 25 82 39 22 38 33 -5 53
-19 9 -39 23 -46 31 -6 8 -25 14 -41 14 -29 0 -30 -1 -23 -32z m-25 -924 c0
-8 -4 -12 -10 -9 -5 3 -10 10 -10 16 0 5 5 9 10 9 6 0 10 -7 10 -16z"/>
<path d="M6670 11166 c0 -15 18 -31 26 -23 7 7 -7 37 -17 37 -5 0 -9 -6 -9
-14z"/>
<path d="M7223 11173 c-13 -2 -23 -6 -23 -8 0 -22 61 -114 102 -152 28 -26 59
-55 68 -64 11 -11 20 -40 25 -80 3 -35 13 -90 20 -121 8 -31 19 -95 25 -143
12 -97 19 -119 54 -172 14 -21 32 -57 40 -81 9 -24 25 -55 36 -70 40 -52 70
-97 82 -124 13 -30 42 -42 57 -24 6 7 13 37 17 68 6 48 4 56 -12 60 -14 4 -31
42 -67 152 -49 148 -54 187 -32 254 6 19 4 22 -16 22 -40 0 -49 13 -58 86 -7
60 -16 81 -55 138 -25 37 -46 72 -46 78 0 7 14 8 40 4 22 -3 40 -4 40 -1 0 3
-15 20 -33 38 -19 17 -44 49 -56 70 -38 63 -114 88 -208 70z"/>
<path d="M4335 10841 c-43 -11 -75 -30 -75 -45 0 -21 89 -98 106 -92 8 3 13 2
10 -3 -7 -11 66 -51 93 -51 12 0 39 -9 60 -19 55 -28 188 -61 316 -77 28 -3
70 -10 95 -16 25 -5 62 -12 83 -15 20 -3 40 -9 43 -14 3 -5 14 -9 24 -9 21 0
40 -28 33 -47 -6 -18 4 -16 73 8 32 11 92 25 133 30 83 9 141 26 141 40 0 12
-76 12 -98 0 -9 -5 -46 -12 -82 -16 l-65 -6 -45 41 c-25 22 -56 43 -70 46 -14
3 -38 10 -55 16 -16 5 -56 13 -89 18 -34 5 -67 17 -80 28 -48 44 -176 92 -245
92 -26 0 -71 -9 -101 -20 -86 -32 -162 -21 -174 25 -7 27 -2 29 36 15 28 -10
46 -9 113 10 44 12 97 21 118 20 30 -1 37 3 37 19 0 10 -6 21 -14 24 -20 8
-287 6 -321 -2z m5 -41 c0 -5 -2 -10 -4 -10 -3 0 -8 5 -11 10 -3 6 -1 10 4 10
6 0 11 -4 11 -10z"/>
<path d="M6376 10791 c-7 -11 31 -41 52 -41 8 0 12 9 10 23 -2 15 -11 23 -30
25 -14 2 -29 -1 -32 -7z"/>
<path d="M6340 10435 c0 -21 5 -25 29 -25 25 0 28 3 23 25 -3 18 -11 25 -28
25 -19 0 -24 -5 -24 -25z"/>
<path d="M6189 10384 c-7 -8 -30 -24 -51 -35 -30 -15 -39 -25 -36 -42 5 -36
49 -34 76 3 13 17 47 42 78 55 30 13 54 26 54 29 0 4 -24 6 -54 6 -36 0 -58
-5 -67 -16z"/>
<path d="M6327 10317 l-22 -22 23 -3 c23 -3 52 13 52 28 0 19 -32 18 -53 -3z"/>
<path d="M3863 10226 c-46 -15 -96 -43 -160 -92 -24 -17 -62 -36 -86 -43 -24
-6 -68 -27 -96 -46 -29 -20 -74 -45 -99 -56 -55 -24 -82 -46 -82 -67 0 -21
173 -12 215 11 l30 16 -58 1 c-48 0 -58 3 -55 16 2 9 19 22 39 28 21 7 50 23
65 35 17 13 30 18 32 12 5 -16 22 -13 22 4 0 8 5 15 12 15 7 0 29 12 49 26 36
25 38 25 68 9 29 -15 36 -15 86 1 30 10 55 23 55 30 0 19 51 55 74 52 12 -1
27 1 35 6 17 11 29 -8 24 -38 -3 -13 0 -27 7 -31 17 -10 137 25 156 46 20 22
13 34 -36 59 -32 16 -58 20 -147 19 -59 0 -127 -6 -150 -13z"/>
<path d="M7337 10172 c-9 -21 -17 -46 -17 -55 0 -21 23 -22 41 -1 8 10 22 14
40 10 59 -11 78 48 23 72 -47 22 -69 15 -87 -26z"/>
<path d="M7467 9942 c-24 -26 -21 -32 12 -32 29 0 42 14 34 38 -7 17 -27 15
-46 -6z"/>
<path d="M3895 9934 c-59 -31 -111 -69 -175 -129 -36 -33 -88 -71 -115 -84
-28 -13 -60 -32 -71 -43 -15 -13 -51 -23 -115 -32 -52 -8 -113 -19 -136 -26
l-41 -13 13 -45 14 -46 -49 -73 c-47 -70 -80 -151 -80 -197 -1 -12 -7 -32 -15
-46 -8 -14 -14 -36 -14 -50 l0 -25 18 22 c11 13 17 31 15 41 -4 13 7 23 40 40
49 23 55 32 31 52 -18 15 -19 30 -2 30 6 0 22 18 34 39 18 32 26 38 47 34 21
-4 26 0 32 21 5 21 12 26 38 26 22 0 40 8 56 25 27 29 35 26 43 -15 4 -16 12
-30 18 -30 6 0 8 7 5 16 -3 9 -9 28 -12 42 -4 15 -11 32 -16 39 -14 17 81 120
162 176 14 9 63 43 110 74 47 32 103 73 125 93 22 20 57 47 77 60 21 14 38 28
38 33 0 12 -43 7 -75 -9z m-577 -480 c-3 -13 -6 -13 -22 -1 -12 9 -17 20 -13
31 6 16 8 16 23 2 8 -9 14 -23 12 -32z"/>
<path d="M7704 9863 c-12 -2 -30 -13 -40 -24 -18 -20 -18 -21 1 -35 23 -17 49
-17 134 -1 l64 13 -32 27 c-32 27 -67 32 -127 20z"/>
<path d="M7336 9831 c-14 -21 7 -42 38 -39 23 2 32 8 34 26 3 19 -1 22 -32 22
-19 0 -37 -4 -40 -9z"/>
<path d="M3625 9825 c-5 -2 -43 -13 -82 -26 -93 -28 -86 -43 9 -18 39 11 82
19 95 19 14 0 23 6 23 15 0 14 -21 18 -45 10z"/>
<path d="M8270 9576 c0 -18 22 -43 99 -110 60 -53 88 -62 79 -24 -4 17 -152
148 -167 148 -6 0 -11 -6 -11 -14z"/>
<path d="M7103 9469 c-26 -10 -26 -9 -13 -43 6 -18 19 -27 45 -32 20 -3 43
-13 51 -21 12 -12 20 -13 37 -5 18 9 19 11 5 11 -11 1 -18 9 -18 21 0 12 -7
20 -17 20 -10 0 -29 13 -43 29 -20 24 -29 28 -47 20z"/>
<path d="M7678 9427 c-13 -4 -32 -17 -43 -27 -11 -10 -37 -21 -57 -25 -40 -8
-43 -4 -38 39 1 14 -3 17 -15 12 -9 -3 -21 -6 -26 -6 -5 0 -9 -12 -9 -27 0
-37 -9 -48 -49 -61 -44 -15 -40 -17 -52 18 -12 34 -29 40 -29 10 0 -13 -13
-28 -35 -41 -19 -12 -35 -23 -35 -25 0 -8 244 6 304 17 118 21 231 74 239 112
2 14 -118 18 -155 4z"/>
<path d="M7021 9401 c-8 -6 -9 -11 -3 -15 6 -3 14 -1 17 5 9 14 2 20 -14 10z"/>
<path d="M8556 9311 c-4 -7 -5 -15 -2 -18 9 -9 19 4 14 18 -4 11 -6 11 -12 0z"/>
<path d="M7104 9295 c-15 -11 -16 -14 -3 -15 8 0 24 7 35 15 15 11 16 14 3 15
-8 0 -24 -7 -35 -15z"/>
<path d="M3354 9235 c-17 -13 -17 -14 -2 -15 9 0 20 5 23 11 11 17 0 20 -21 4z"/>
<path d="M9874 8233 c-19 -21 -43 -54 -54 -73 -19 -38 -53 -180 -95 -405 -15
-77 -42 -204 -61 -283 -19 -79 -43 -199 -54 -267 -65 -403 -176 -722 -327
-939 -183 -262 -254 -319 -470 -376 -119 -31 -172 -34 -213 -13 -55 29 -62 51
-57 193 4 113 8 133 36 202 26 61 48 94 113 163 74 78 120 115 147 115 6 0 18
-11 26 -24 14 -22 14 -27 -2 -60 -15 -32 -15 -38 -2 -51 8 -8 28 -17 46 -21
28 -6 34 -2 62 36 20 27 31 55 31 75 0 47 -56 125 -109 152 l-43 22 -52 -19
c-40 -15 -71 -40 -143 -115 -102 -104 -146 -179 -199 -335 -26 -76 -29 -98
-29 -210 0 -115 2 -128 24 -164 52 -83 192 -110 337 -65 135 42 294 130 369
204 39 39 140 174 234 311 30 43 56 73 58 67 2 -6 -12 -125 -32 -263 -20 -138
-35 -272 -33 -298 3 -43 5 -47 36 -56 19 -5 45 -5 64 0 25 8 34 18 46 54 23
68 59 119 97 137 31 15 48 15 143 5 109 -11 134 -18 259 -79 68 -32 78 -34
175 -33 121 0 161 8 223 44 61 36 138 134 159 202 5 18 1 22 -24 28 -27 5 -40
-1 -93 -45 -81 -65 -170 -109 -238 -116 -50 -5 -68 0 -195 50 -77 30 -166 60
-199 67 -133 28 -136 46 -29 180 101 126 166 227 251 390 111 211 127 289 71
342 -54 51 -76 40 -196 -92 -112 -124 -196 -253 -310 -480 -43 -86 -61 -114
-58 -90 4 19 17 113 31 207 29 203 52 277 141 455 178 356 281 627 305 803 15
118 5 394 -16 435 -41 79 -96 91 -151 33z m86 -304 c0 -96 -6 -190 -15 -242
-17 -101 -121 -379 -201 -542 l-54 -110 4 90 c4 97 30 225 106 515 27 102 60
241 75 310 15 69 34 141 42 160 l15 35 14 -30 c9 -21 13 -78 14 -186z m41
-1136 c3 -42 -7 -66 -83 -198 -114 -198 -273 -433 -285 -421 -8 8 85 252 132
346 66 131 189 288 228 290 4 0 8 -8 8 -17z"/>
<path d="M2544 8228 c-29 -13 -87 -117 -182 -323 -43 -94 -127 -254 -186 -357
-88 -155 -105 -191 -97 -206 19 -35 68 -43 93 -14 8 9 19 31 22 47 19 78 275
514 290 493 4 -5 -13 -195 -38 -419 l-23 -208 -80 -133 c-104 -172 -199 -340
-256 -453 -88 -177 -250 -623 -321 -885 -57 -213 -187 -832 -202 -960 -25
-216 -29 -711 -10 -990 20 -289 34 -426 47 -466 18 -58 92 -109 173 -120 37
-5 56 -1 110 24 101 47 146 96 215 231 173 340 257 620 326 1091 32 223 41
345 69 948 13 271 26 495 29 499 4 3 48 -7 99 -22 218 -63 380 -37 531 84 137
110 279 280 338 406 35 74 88 257 125 430 23 111 27 154 28 295 0 189 -14 258
-85 410 -47 100 -99 157 -189 208 -58 33 -71 36 -131 34 -157 -4 -295 -87
-521 -310 l-158 -156 0 61 c0 107 41 476 61 548 21 76 25 175 9 206 -12 21
-51 24 -86 7z m782 -474 c18 -9 55 -37 82 -64 41 -41 52 -59 75 -136 51 -168
61 -231 60 -379 0 -126 -4 -155 -36 -285 -44 -178 -79 -291 -116 -373 -28 -61
-119 -189 -208 -294 -79 -93 -237 -149 -400 -141 -72 4 -92 9 -165 46 -46 23
-90 48 -99 55 -15 11 -16 54 -8 472 9 501 15 562 64 637 16 24 96 111 179 194
164 165 232 212 367 258 85 29 157 33 205 10z m-922 -756 c9 -78 17 -573 10
-650 -8 -93 -14 -105 -42 -87 -19 12 -42 49 -42 69 0 5 12 22 26 39 21 26 24
34 14 46 -34 40 -120 -12 -135 -81 -9 -44 11 -84 89 -183 37 -47 69 -94 72
-106 10 -41 -36 -1029 -56 -1195 -63 -515 -158 -897 -315 -1265 -56 -131 -72
-154 -137 -206 -82 -64 -146 -50 -176 40 -7 18 -21 124 -32 235 -11 110 -25
228 -30 261 -16 107 -22 512 -11 650 26 297 73 596 132 838 105 426 239 869
325 1074 24 59 92 199 151 312 145 282 148 285 157 209z"/>
<path d="M7188 7953 c-418 -565 -472 -631 -562 -682 -58 -32 -90 -81 -84 -129
4 -32 41 -54 72 -43 12 4 104 106 205 227 366 437 445 527 449 514 8 -24 -27
-434 -68 -795 -10 -93 -22 -217 -25 -275 -3 -58 -10 -132 -15 -165 -5 -33 -16
-148 -25 -255 -17 -204 -36 -324 -61 -375 -9 -16 -51 -59 -96 -94 -88 -71
-321 -341 -444 -516 -205 -289 -359 -598 -480 -960 -84 -251 -96 -305 -124
-528 -28 -228 -25 -314 15 -455 13 -44 29 -68 80 -119 100 -100 215 -139 336
-114 70 15 211 104 295 187 61 60 160 224 217 360 30 70 139 426 191 625 49
184 60 268 101 749 54 645 74 871 79 879 6 9 242 173 275 190 45 24 43 -1 -13
-188 -31 -100 -64 -220 -73 -266 l-18 -85 26 -26 c39 -39 100 -49 154 -25 123
54 248 180 368 371 21 33 43 58 48 55 5 -4 9 -43 10 -88 1 -159 12 -233 38
-261 40 -43 116 -31 167 26 39 43 126 196 122 215 -2 11 -13 19 -29 21 -21 2
-33 -5 -55 -36 -16 -21 -46 -58 -68 -82 -45 -50 -49 -47 -67 48 -17 90 -7 190
44 444 28 140 40 222 35 232 -16 29 -88 57 -159 63 -64 6 -74 4 -135 -28 -74
-37 -131 -95 -246 -249 -68 -92 -73 -97 -76 -70 -7 62 -22 58 -168 -44 -82
-57 -147 -96 -161 -96 l-25 0 7 123 c10 180 53 731 59 748 5 13 31 289 71 754
9 99 18 206 22 237 5 54 4 59 -25 87 -56 56 -69 48 -184 -106z m805 -1491 c46
-51 33 -166 -37 -316 -103 -223 -307 -446 -386 -421 -25 8 -27 62 -4 173 34
171 196 432 336 543 56 44 68 47 91 21z m-903 -707 c0 -87 -34 -563 -60 -855
-14 -144 -39 -289 -96 -550 -71 -326 -91 -395 -160 -548 -53 -120 -77 -161
-140 -239 -144 -177 -265 -266 -364 -267 -39 -1 -57 6 -104 38 -66 45 -88 78
-112 166 -21 76 -24 259 -5 383 21 144 109 480 166 637 32 85 99 245 149 355
77 168 110 227 209 370 185 269 466 605 507 605 6 0 10 -37 10 -95z"/>
<path d="M6313 6629 c-30 -9 -79 -59 -162 -166 -39 -51 -39 -51 -193 18 -59
27 -114 49 -123 49 -39 0 -86 -30 -100 -64 -21 -51 -19 -165 4 -227 44 -116
112 -177 313 -284 l105 -55 91 138 c105 159 173 284 202 367 24 70 25 86 4
154 -13 44 -21 55 -49 67 -38 16 -47 16 -92 3z m64 -71 c17 -21 22 -70 12
-127 -10 -66 -145 -314 -240 -445 -17 -23 -264 144 -308 208 -55 79 -76 224
-38 248 33 21 97 7 207 -47 89 -44 115 -53 126 -44 8 7 46 51 84 99 38 48 84
95 102 103 40 20 43 20 55 5z"/>
<path d="M4261 6317 c-49 -173 -87 -288 -113 -340 -45 -90 -166 -297 -174
-297 -21 0 -45 26 -54 58 -16 58 -12 143 15 327 30 200 42 407 26 448 -10 25
-15 27 -69 27 -116 0 -259 -51 -319 -113 -107 -111 -190 -267 -234 -443 -38
-151 -44 -250 -16 -302 28 -51 55 -56 139 -25 80 30 108 55 242 210 44 51 82
91 84 88 2 -2 12 -60 22 -128 32 -219 57 -287 105 -287 31 0 108 52 140 95
l29 36 10 -33 c6 -18 19 -34 28 -36 43 -8 155 148 314 439 54 98 99 177 101
176 2 -2 -17 -105 -41 -228 -63 -319 -61 -304 -37 -328 31 -31 66 -27 94 12
14 17 69 102 122 187 53 85 134 211 179 279 l81 125 3 -50 c1 -27 6 -177 10
-333 10 -323 6 -311 95 -311 36 0 70 10 131 39 90 42 136 80 136 111 0 26 -19
26 -145 0 -53 -11 -99 -20 -101 -20 -12 0 7 609 21 692 3 21 -3 37 -26 63 -62
70 -57 75 -383 -397 -37 -54 -70 -98 -73 -98 -11 0 9 110 58 304 27 109 47
207 44 217 -8 23 -42 25 -88 5 -25 -11 -50 -43 -117 -152 -129 -212 -173 -279
-177 -268 -2 5 24 117 57 249 45 178 57 242 49 252 -6 7 -30 13 -53 13 l-41 0
-74 -263z m-441 78 c37 -19 37 -31 5 -160 -34 -131 -60 -181 -159 -301 -103
-124 -154 -166 -204 -168 -34 -1 -37 1 -40 29 -6 48 18 174 49 261 40 109 110
225 178 296 52 53 61 58 99 58 24 0 56 -7 72 -15z"/>
<path d="M9021 3076 c-7 -13 -10 -33 -7 -43 5 -16 0 -23 -21 -32 -16 -7 -37
-18 -47 -26 -19 -14 -19 -15 0 -36 16 -18 17 -22 4 -32 -8 -7 -23 -29 -34 -49
-12 -23 -23 -35 -32 -31 -18 7 -44 -15 -44 -37 0 -12 -8 -17 -30 -17 -20 0
-41 -10 -59 -27 l-29 -28 -12 36 c-6 20 -15 34 -20 31 -5 -3 0 -31 10 -61 l20
-56 -50 -63 c-50 -63 -150 -155 -169 -155 -5 0 -16 -8 -23 -18 -7 -10 -37 -35
-65 -56 -29 -20 -62 -49 -72 -62 -11 -14 -38 -39 -61 -55 -44 -32 -51 -49 -19
-49 42 0 100 42 201 147 33 34 84 77 112 94 28 18 62 42 76 54 31 28 82 45
130 45 33 0 132 32 153 50 4 4 1 25 -8 48 l-17 41 40 68 c41 69 72 156 72 201
0 13 8 46 17 73 12 34 14 52 7 59 -7 7 -14 3 -23 -14z m-129 -341 c3 -15 1
-25 -6 -25 -18 0 -35 21 -29 36 9 23 30 16 35 -11z"/>
<path d="M8785 2979 c-11 -17 0 -20 21 -4 17 13 17 14 2 15 -9 0 -20 -5 -23
-11z"/>
<path d="M6972 2723 c-95 -39 -143 -121 -116 -199 12 -36 12 -40 -10 -64 -13
-14 -33 -43 -45 -65 -28 -52 -41 -73 -72 -115 -36 -48 -64 -99 -73 -132 -3
-16 -11 -28 -16 -28 -6 0 -10 -8 -10 -19 0 -10 -9 -30 -20 -43 -14 -19 -19
-40 -19 -80 1 -72 -11 -92 -67 -114 l-47 -18 -29 37 c-17 20 -36 37 -44 37
-17 0 -34 -31 -34 -62 0 -13 -9 -41 -20 -63 -14 -27 -20 -59 -20 -100 0 -71
-20 -105 -91 -157 -52 -38 -101 -47 -256 -49 -83 -1 -115 -5 -124 -15 -9 -11
-8 -15 2 -18 24 -7 193 -26 237 -26 43 0 62 -14 43 -33 -19 -19 -12 -63 14
-91 14 -15 25 -33 25 -41 0 -7 11 -22 24 -32 30 -22 76 -169 106 -337 25 -137
25 -134 -5 -148 -26 -12 -35 -48 -12 -48 7 0 29 -11 49 -25 37 -25 88 -34 88
-15 0 5 -7 30 -15 55 -9 25 -13 50 -10 55 4 6 -2 34 -11 63 -10 28 -16 57 -14
62 2 6 4 19 5 31 1 11 5 26 9 33 5 8 -2 40 -18 79 -14 37 -41 110 -59 162 -32
90 -36 95 -64 98 -37 4 -68 34 -59 58 5 14 10 14 42 -5 20 -12 44 -19 54 -16
24 7 74 -36 90 -77 18 -45 98 -176 129 -212 14 -16 62 -65 106 -108 105 -104
145 -115 145 -39 0 24 -7 44 -19 55 -10 9 -26 34 -36 56 -20 45 -31 50 -41 18
-6 -19 -10 -15 -35 33 -27 55 -63 89 -93 89 -18 0 -81 75 -95 113 -10 26 -9
29 24 43 19 8 35 19 35 24 0 5 -19 23 -42 40 -93 64 -105 75 -101 87 3 7 -3
16 -12 19 -9 4 -20 16 -25 28 -8 23 1 29 165 117 99 53 197 149 244 239 34 66
105 168 173 250 20 25 51 74 68 110 17 36 44 89 60 118 16 30 32 75 35 100 3
26 12 88 21 137 13 76 13 96 2 130 -16 50 -33 53 -116 18z m-572 -1101 c0 -15
-2 -15 -10 -2 -13 20 -13 33 0 25 6 -3 10 -14 10 -23z"/>
<path d="M5008 2709 c-31 -17 -19 -30 12 -14 17 9 30 18 30 20 0 8 -24 5 -42
-6z"/>
<path d="M4819 2696 c-2 -2 -38 -7 -79 -9 -128 -9 -209 -26 -304 -64 -97 -38
-154 -85 -125 -104 8 -5 23 -6 34 -3 11 3 39 6 62 5 33 -1 48 4 76 28 34 30
76 51 103 51 9 0 14 -11 14 -31 0 -24 3 -30 16 -25 9 3 20 6 25 6 5 0 9 18 9
40 0 42 2 44 66 64 18 5 24 1 32 -24 6 -16 16 -30 23 -30 6 0 9 7 5 15 -5 15
5 27 54 65 18 14 21 19 9 20 -9 0 -18 -2 -20 -4z"/>
<path d="M3550 2610 c0 -11 5 -20 10 -20 6 0 10 9 10 20 0 11 -4 20 -10 20 -5
0 -10 -9 -10 -20z"/>
<path d="M4912 2621 c-11 -7 -11 -9 2 -14 9 -4 16 -13 16 -22 0 -8 9 -15 20
-15 11 0 32 -13 46 -29 22 -25 29 -28 49 -19 20 9 22 14 13 39 -10 28 -16 32
-75 44 -18 4 -33 11 -33 16 0 11 -21 11 -38 0z"/>
<path d="M5107 2613 c-12 -12 -7 -22 8 -17 8 4 15 10 15 15 0 11 -14 12 -23 2z"/>
<path d="M3686 2495 c-6 -17 2 -45 14 -45 4 0 42 -27 83 -60 42 -33 81 -60 87
-60 22 0 8 31 -29 65 -33 31 -141 115 -147 115 -1 0 -4 -7 -8 -15z"/>
<path d="M8666 2410 c-27 -11 -69 -22 -93 -26 -32 -5 -43 -11 -43 -24 0 -17 2
-17 58 -1 82 26 132 48 132 60 0 6 -1 11 -2 11 -2 -1 -25 -10 -52 -20z"/>
<path d="M8780 2279 c-65 -7 -150 -35 -150 -48 0 -4 25 -6 56 -3 45 4 56 2 52
-9 -2 -8 -18 -20 -34 -28 -16 -7 -41 -25 -56 -38 -18 -18 -32 -23 -47 -18 -15
4 -21 2 -21 -8 0 -8 -13 -20 -29 -27 -16 -6 -32 -18 -35 -26 -6 -17 -36 -18
-70 -3 -35 16 -112 -14 -132 -52 -18 -35 -37 -46 -89 -50 -39 -4 -40 -4 -37
27 2 21 -2 33 -12 37 -21 8 -127 -30 -151 -54 -20 -20 -20 -20 10 -45 41 -33
81 -38 200 -27 119 11 180 36 261 107 28 25 74 54 102 64 28 11 70 35 94 54
24 19 67 48 95 63 29 15 60 36 70 47 14 16 15 20 2 31 -10 10 -32 11 -79 6z"/>
<path d="M4772 2171 c-8 -5 -12 -17 -10 -27 3 -14 11 -18 32 -17 36 3 49 14
40 36 -7 18 -40 22 -62 8z"/>
<path d="M4367 2142 l-58 -15 22 -23 c12 -13 34 -26 49 -29 38 -8 108 14 126
39 13 19 12 22 -3 33 -21 16 -61 15 -136 -5z"/>
<path d="M4663 2034 c-3 -8 0 -21 6 -27 14 -14 44 2 49 27 5 22 -46 22 -55 0z"/>
<path d="M4834 1845 c-4 -9 -20 -15 -43 -15 -54 0 -68 -12 -51 -44 15 -28 73
-46 98 -29 16 10 43 88 34 98 -11 10 -33 5 -38 -10z"/>
<path d="M4470 1765 c-12 -57 -2 -99 23 -90 7 3 17 -11 25 -37 8 -24 34 -90
59 -148 42 -99 45 -109 40 -177 l-4 -73 27 0 c37 0 45 -13 58 -89 7 -35 18
-73 27 -85 8 -11 31 -41 50 -66 45 -59 45 -74 0 -67 -19 3 -35 3 -35 -1 0 -4
33 -41 73 -84 84 -89 117 -103 202 -86 54 11 62 25 31 53 -6 6 -17 22 -23 37
-7 14 -46 55 -87 89 l-75 62 -16 91 c-9 49 -23 106 -30 125 -8 20 -21 72 -29
116 -18 96 -28 126 -60 168 -13 18 -33 51 -45 75 -21 42 -59 97 -121 176 -16
21 -30 44 -30 52 0 8 -10 14 -24 14 -22 0 -26 -7 -36 -55z"/>
<path d="M6040 1717 c-12 -19 -42 -46 -70 -61 -28 -15 -50 -31 -50 -37 0 -5
18 -9 39 -9 30 0 49 8 81 35 23 19 46 35 51 35 17 0 31 40 18 56 -20 24 -48
16 -69 -19z"/>
<path d="M5852 1714 c-29 -20 -28 -34 3 -34 21 0 45 24 45 44 0 11 -26 6 -48
-10z"/>
<path d="M5000 1695 c-10 -12 -9 -16 6 -21 83 -27 89 -32 115 -85 33 -67 108
-147 119 -128 7 10 11 10 24 0 13 -11 15 -26 10 -76 -6 -58 -5 -63 23 -96 17
-19 34 -45 38 -59 14 -49 58 -140 67 -140 5 0 17 -18 27 -40 24 -53 48 -71 77
-58 18 8 28 6 50 -11 17 -13 41 -21 67 -21 39 0 40 0 34 -34 -3 -18 -2 -38 3
-42 18 -19 99 -251 99 -284 1 -19 1 -56 1 -82 -1 -38 3 -48 20 -53 11 -3 20
-10 20 -15 0 -5 13 -23 30 -40 29 -30 31 -30 60 -15 38 20 44 44 38 163 -5 86
-12 113 -58 237 -28 77 -69 167 -89 200 -21 33 -50 81 -65 107 -35 62 -101
141 -212 253 -104 105 -138 135 -152 135 -5 0 -21 12 -35 26 -15 15 -41 34
-59 43 -21 11 -35 26 -40 47 -6 25 -16 35 -50 47 -98 34 -114 40 -130 48 -23
12 -23 12 -38 -6z m428 -420 c46 -95 32 -115 -32 -45 -29 32 -36 48 -36 80 l0
41 25 -18 c13 -10 33 -36 43 -58z m214 -270 c0 -5 -5 -11 -11 -13 -6 -2 -11 4
-11 13 0 9 5 15 11 13 6 -2 11 -8 11 -13z"/>
<path d="M7004 1601 c-39 -15 -85 -28 -103 -29 -37 -1 -128 -29 -136 -43 -8
-13 67 -11 102 2 15 6 52 15 81 20 47 9 57 8 87 -11 19 -12 35 -25 35 -29 0
-19 86 -45 205 -61 39 -5 77 -18 110 -39 100 -62 253 -84 313 -45 12 8 22 12
22 9 0 -3 13 1 30 10 53 28 133 11 144 -30 7 -27 1 -30 -33 -15 -26 10 -42 8
-123 -18 -51 -17 -104 -30 -118 -29 -19 2 -26 -3 -28 -20 -3 -23 -3 -23 130
-23 94 0 151 5 189 16 55 16 89 38 89 58 0 17 -83 84 -114 92 -14 3 -26 9 -26
13 0 13 -49 31 -81 31 -16 0 -43 7 -59 15 -32 16 -149 43 -220 50 -25 3 -72 7
-105 11 -33 3 -73 7 -90 9 -16 1 -43 6 -60 11 -16 4 -37 8 -45 9 -49 4 -81 19
-86 41 -8 30 -22 30 -110 -5z m936 -291 c0 -5 -4 -10 -10 -10 -5 0 -10 5 -10
10 0 6 5 10 10 10 6 0 10 -4 10 -10z"/>
<path d="M5828 1575 c3 -18 11 -25 28 -25 27 0 37 12 28 34 -4 9 -18 16 -34
16 -24 0 -27 -3 -22 -25z"/>
<path d="M5755 1490 c3 -5 8 -10 11 -10 2 0 4 5 4 10 0 6 -5 10 -11 10 -5 0
-7 -4 -4 -10z"/>
<path d="M5800 1232 c0 -5 6 -16 13 -26 10 -14 17 -15 41 -6 28 10 28 11 10
25 -20 15 -64 20 -64 7z"/>
<path d="M5570 823 c0 -5 4 -15 10 -23 11 -18 25 -7 17 15 -6 15 -27 21 -27 8z"/>
</g>
</svg>
